<?xml version="1.0" standalone="no"?>
<!DOCTYPE svg PUBLIC "-//W3C//DTD SVG 20010904//EN"
 "http://www.w3.org/TR/2001/REC-SVG-20010904/DTD/svg10.dtd">
<svg version="1.0" xmlns="http://www.w3.org/2000/svg"
 width="700.000000pt" height="700.000000pt" viewBox="0 0 700.000000 700.000000"
 preserveAspectRatio="xMidYMid meet">
<metadata>
Created by potrace 1.11, written by Peter Selinger 2001-2013
</metadata>
<g transform="translate(0.000000,700.000000) scale(0.100000,-0.100000)"
fill="#000000" stroke="none">
<path d="M926 6254 c-36 -11 -65 -31 -107 -73 -98 -99 -89 181 -89 -2681 0
-2862 -9 -2582 89 -2681 99 -98 -182 -89 2687 -89 2497 0 2524 0 2577 20 63
24 127 84 159 149 l23 46 3 2535 c3 2884 12 2602 -87 2701 -99 98 182 89
-2685 88 -2216 0 -2527 -2 -2570 -15z m2434 -1842 l0 -509 -42 -19 c-24 -10
-73 -48 -109 -84 -140 -139 -173 -309 -91 -480 32 -67 140 -177 200 -204 l42
-19 0 -509 0 -508 -30 0 c-48 0 -176 29 -275 61 -207 68 -390 183 -556 349
-279 278 -421 618 -421 1010 0 294 79 554 243 801 119 178 350 384 538 479
136 68 366 137 464 139 l37 1 0 -508z m512 473 c467 -119 833 -462 983 -920
34 -104 65 -244 65 -296 l0 -29 -505 0 -505 0 -26 53 c-50 100 -140 183 -216
202 l-28 7 0 511 0 510 68 -7 c37 -3 111 -17 164 -31z m1048 -1554 c0 -45 -27
-174 -56 -270 -35 -114 -108 -267 -180 -377 -71 -108 -249 -289 -354 -360
-192 -130 -424 -219 -629 -240 l-61 -7 0 510 0 509 38 13 c87 32 154 97 208
204 l24 47 505 0 505 0 0 -29z"/>
</g>
</svg>
